<svg viewBox="0 0 75.32409885671706 50" xmlns="http://www.w3.org/2000/svg" xmlns:xlink="http://www.w3.org/1999/xlink" version="1.1"><g transform="translate(-4.266665297534494 -16.929136981609933) scale(0.838574262528791)"><g fill="#1e87f0 "><path d="M83.395 66.609l-7.024-23.668-11.728-14.817 4.425-7.936-9.06 1.264-7.373 3.16H38.799l-20.566 4.665-7.947 8.749-5.198 4.143 2.108 2.248 19.787-6.247 12.823-1.345 20.717 3.658L73.32 53.615l4.457 14.142-6.017-12.9-12.031-11.494-19.877-3.792-12.57.702-20.086 4.144 20.086-2.459 7.374 5.9 8.145.492-4.283-4.495 19.314 3.23 12.641 9.481 7.304 11.238-1.054 12.009 5.338-7.726 12.851 4.776z"></path></g></g></svg>
