<svg viewBox="-302.1628967581047 -73.98319124365625 757.2643431421445 187.29921833837028" xmlns="http://www.w3.org/2000/svg" xmlns:xlink="http://www.w3.org/1999/xlink" version="1.1"><g transform="translate(-3.6783042394014958 41.44139650872817) scale(1.7733444167359378)" fill="#FFFFFF"><g><path d="M2.074-54.703L2.074-45.070L7.699-45.070L7.699-9.633L2.074-9.633L2.074 0L22.219 0L22.219-9.633L18.492-9.633L18.492-15.609L23.977-15.609L35.789 0L45.668 0L45.668-10.582L39.621-10.582L32.695-18.949L39.480-26.789L46.020-26.789L46.020-36.422L27.176-36.422L27.176-26.789L24.645-23.168L18.492-23.168L18.492-54.703Z"></path><path d="M51.046-36.422L51.046-26.789L56.530-26.789L56.530-9.633L51.046-9.633L51.046 0L72.456 0L72.456-9.633L67.394-9.633L67.394-36.422ZM55.968-48.164C55.968-47.297 56.126-46.482 56.442-45.721C56.759-44.959 57.198-44.297 57.761-43.734C58.323-43.172 58.985-42.727 59.747-42.398C60.509-42.070 61.335-41.906 62.226-41.906C63.069-41.906 63.866-42.070 64.616-42.398C65.366-42.727 66.022-43.172 66.585-43.734C67.147-44.297 67.593-44.959 67.921-45.721C68.249-46.482 68.413-47.297 68.413-48.164C68.413-49.031 68.249-49.846 67.921-50.607C67.593-51.369 67.147-52.031 66.585-52.594C66.022-53.156 65.366-53.602 64.616-53.930C63.866-54.258 63.069-54.422 62.226-54.422C61.335-54.422 60.509-54.258 59.747-53.930C58.985-53.602 58.323-53.156 57.761-52.594C57.198-52.031 56.759-51.369 56.442-50.607C56.126-49.846 55.968-49.031 55.968-48.164Z"></path><path d="M103.357-23.836L113.060-23.836L113.060-34.418L106.064-34.418C104.400-35.496 102.643-36.305 100.791-36.844C98.939-37.383 97.029-37.605 95.060-37.512C92.295-37.605 89.734-37.172 87.379-36.211C85.023-35.250 82.990-33.908 81.279-32.186C79.568-30.463 78.226-28.447 77.254-26.139C76.281-23.830 75.795-21.328 75.795-18.633C75.795-15.914 76.269-13.371 77.219-11.004C78.168-8.637 79.486-6.574 81.174-4.816C82.861-3.059 84.877-1.670 87.221-0.650C89.564 0.369 92.131 0.879 94.920 0.879C97.662 0.879 100.105 0.469 102.250-0.352C104.394-1.172 106.246-2.209 107.805-3.463C109.363-4.717 110.629-6.105 111.601-7.629C112.574-9.152 113.260-10.617 113.658-12.023L103.990-14.695C103.709-14.063 103.316-13.389 102.812-12.674C102.309-11.959 101.705-11.314 101.002-10.740C100.299-10.166 99.496-9.697 98.594-9.334C97.691-8.971 96.689-8.742 95.588-8.648C94.275-8.742 93.062-9.023 91.949-9.492C90.836-9.961 89.875-10.611 89.066-11.443C88.258-12.275 87.619-13.266 87.150-14.414C86.682-15.563 86.447-16.781 86.447-18.070C86.447-19.523 86.670-20.830 87.115-21.990C87.560-23.150 88.187-24.152 88.996-24.996C89.805-25.840 90.766-26.496 91.879-26.965C92.992-27.434 94.228-27.621 95.588-27.527C97.275-27.621 98.740-27.346 99.982-26.701C101.225-26.057 102.350-25.102 103.357-23.836Z"></path><path d="M114.079-54.703L114.079-45.070L119.704-45.070L119.704-9.633L114.079-9.633L114.079 0L134.224 0L134.224-9.633L130.497-9.633L130.497-15.609L135.981-15.609L147.794 0L157.673 0L157.673-10.582L151.626-10.582L144.700-18.949L151.485-26.789L158.024-26.789L158.024-36.422L139.181-36.422L139.181-26.789L136.649-23.168L130.497-23.168L130.497-54.703Z"></path><path d="M162.769-18.352C162.769-15.680 163.232-13.178 164.158-10.846C165.084-8.514 166.390-6.480 168.078-4.746C169.765-3.012 171.799-1.641 174.178-0.633C176.556 0.375 179.211 0.879 182.140 0.879C185.047 0.879 187.689 0.375 190.068-0.633C192.447-1.641 194.486-3.018 196.185-4.764C197.885-6.510 199.197-8.549 200.123-10.881C201.049-13.213 201.512-15.703 201.512-18.352C201.512-21.000 201.037-23.484 200.088-25.805C199.139-28.125 197.808-30.152 196.098-31.887C194.387-33.621 192.342-34.992 189.963-36C187.584-37.008 184.976-37.512 182.140-37.512C179.305-37.512 176.703-37.008 174.336-36C171.969-34.992 169.930-33.621 168.219-31.887C166.508-30.152 165.172-28.125 164.211-25.805C163.250-23.484 162.769-21.000 162.769-18.352ZM173.281-18.352C173.281-19.805 173.515-21.117 173.984-22.289C174.453-23.461 175.092-24.457 175.900-25.277C176.709-26.098 177.646-26.725 178.713-27.158C179.779-27.592 180.922-27.797 182.140-27.773C183.383-27.797 184.537-27.592 185.603-27.158C186.670-26.725 187.596-26.098 188.381-25.277C189.166-24.457 189.781-23.461 190.226-22.289C190.672-21.117 190.894-19.805 190.894-18.352C190.894-16.945 190.672-15.662 190.226-14.502C189.781-13.342 189.166-12.340 188.381-11.496C187.596-10.652 186.670-10.002 185.603-9.545C184.537-9.088 183.383-8.859 182.140-8.859C180.922-8.859 179.779-9.094 178.713-9.563C177.646-10.031 176.709-10.688 175.900-11.531C175.092-12.375 174.453-13.377 173.984-14.537C173.515-15.697 173.281-16.969 173.281-18.352Z"></path><path d="M219.897-36.422L219.897-41.555C219.897-42.352 220.014-43.049 220.249-43.646C220.483-44.244 220.805-44.742 221.216-45.141C221.626-45.539 222.106-45.844 222.657-46.055C223.208-46.266 223.800-46.371 224.432-46.371C225.417-46.371 226.249-46.254 226.929-46.020C227.608-45.785 228.218-45.469 228.757-45.070L232.800-52.488C232.472-52.793 232.032-53.121 231.481-53.473C230.930-53.824 230.257-54.152 229.460-54.457C228.663-54.762 227.737-55.014 226.682-55.213C225.628-55.412 224.432-55.512 223.096-55.512C221.292-55.512 219.569-55.230 217.929-54.668C216.288-54.105 214.841-53.273 213.587-52.172C212.333-51.070 211.331-49.711 210.581-48.094C209.831-46.477 209.456-44.602 209.456-42.469L209.456-36.422L203.936-36.422L203.936-27.211L209.456-27.211L209.456-9.633L204.007-9.633L204.007 0L226.612 0L226.612-9.633L219.897-9.633L219.897-27.211L226.542-27.211L226.542-36.422Z"></path><path d="M245.806-36.422L245.806-41.555C245.806-42.352 245.924-43.049 246.158-43.646C246.392-44.244 246.715-44.742 247.125-45.141C247.535-45.539 248.015-45.844 248.566-46.055C249.117-46.266 249.709-46.371 250.342-46.371C251.326-46.371 252.158-46.254 252.838-46.020C253.517-45.785 254.127-45.469 254.666-45.070L258.709-52.488C258.381-52.793 257.941-53.121 257.390-53.473C256.840-53.824 256.166-54.152 255.369-54.457C254.572-54.762 253.646-55.014 252.592-55.213C251.537-55.412 250.342-55.512 249.006-55.512C247.201-55.512 245.478-55.230 243.838-54.668C242.197-54.105 240.750-53.273 239.496-52.172C238.242-51.070 237.240-49.711 236.490-48.094C235.740-46.477 235.365-44.602 235.365-42.469L235.365-36.422L229.845-36.422L229.845-27.211L235.365-27.211L235.365-9.633L229.916-9.633L229.916 0L252.521 0L252.521-9.633L245.806-9.633L245.806-27.211L252.451-27.211L252.451-36.422Z"></path></g></g><g transform="translate(-318.1457582608979 -137.399473719631) scale(3.141286077806357)"><g fill="#FFFFFF"><path d="M83.395 66.609l-7.024-23.668-11.728-14.817 4.425-7.936-9.06 1.264-7.373 3.16H38.799l-20.566 4.665-7.947 8.749-5.198 4.143 2.108 2.248 19.787-6.247 12.823-1.345 20.717 3.658L73.32 53.615l4.457 14.142-6.017-12.9-12.031-11.494-19.877-3.792-12.57.702-20.086 4.144 20.086-2.459 7.374 5.9 8.145.492-4.283-4.495 19.314 3.23 12.641 9.481 7.304 11.238-1.054 12.009 5.338-7.726 12.851 4.776z"></path></g></g></svg>
